<?xml version="1.0" encoding="UTF-8"?>
<!DOCTYPE svg PUBLIC "-//W3C//DTD SVG 1.1//EN" "http://www.w3.org/Graphics/SVG/1.1/DTD/svg11.dtd">
<svg xmlns="http://www.w3.org/2000/svg" version="1.1" width="309px" height="324px" style="shape-rendering:geometricPrecision; text-rendering:geometricPrecision; image-rendering:optimizeQuality; fill-rule:evenodd; clip-rule:evenodd" xmlns:xlink="http://www.w3.org/1999/xlink">
<g><path style="opacity:1" fill="#fefefe" d="M -0.5,-0.5 C 102.5,-0.5 205.5,-0.5 308.5,-0.5C 308.5,107.5 308.5,215.5 308.5,323.5C 205.5,323.5 102.5,323.5 -0.5,323.5C -0.5,215.5 -0.5,107.5 -0.5,-0.5 Z"/></g>
<g><path style="opacity:1" fill="#e7199f" d="M 137.5,11.5 C 141.306,11.02 144.639,12.02 147.5,14.5C 146.398,15.1757 145.398,15.8423 144.5,16.5C 133.24,16.5435 122.24,18.2102 111.5,21.5C 111.778,19.6536 111.111,18.3202 109.5,17.5C 105.986,19.1167 102.319,20.1167 98.5,20.5C 110.787,14.8586 123.787,11.8586 137.5,11.5 Z"/></g>
<g><path style="opacity:1" fill="#e032bb" d="M 137.5,11.5 C 147.678,10.3143 158.012,10.3143 168.5,11.5C 167.942,12.7899 166.942,13.6232 165.5,14C 168.194,15.374 170.861,16.5406 173.5,17.5C 163.852,16.7549 154.185,16.4216 144.5,16.5C 145.398,15.8423 146.398,15.1757 147.5,14.5C 144.639,12.02 141.306,11.02 137.5,11.5 Z"/></g>
<g><path style="opacity:1" fill="#fefbfb" d="M 144.5,16.5 C 154.185,16.4216 163.852,16.7549 173.5,17.5C 240.13,32.499 279.463,73.499 291.5,140.5C 291.5,149.833 291.5,159.167 291.5,168.5C 289.871,177.716 288.205,187.049 286.5,196.5C 283.039,205.541 279.372,214.541 275.5,223.5C 269.827,233.5 263.161,242.833 255.5,251.5C 250.806,256.86 245.806,261.86 240.5,266.5C 232.749,272.259 224.749,277.592 216.5,282.5C 212.333,283.778 208.333,285.444 204.5,287.5C 194.487,290.831 184.487,293.831 174.5,296.5C 155.062,298.33 135.729,297.663 116.5,294.5C 76.1351,283.131 45.8018,259.131 25.5,222.5C 21.718,213.938 18.218,205.271 15,196.5C 13.1572,186.996 11.3239,177.663 9.5,168.5C 8.60148,152.925 9.93481,137.592 13.5,122.5C 15.4444,115.665 17.7777,108.999 20.5,102.5C 23.2294,96.0411 26.2294,89.7077 29.5,83.5C 35.0413,74.949 41.3746,66.949 48.5,59.5C 52.1667,56.1667 55.8333,52.8333 59.5,49.5C 67.956,42.7155 76.956,36.7155 86.5,31.5C 94.4908,27.3389 102.824,24.0056 111.5,21.5C 122.24,18.2102 133.24,16.5435 144.5,16.5 Z"/></g>
<g><path style="opacity:1" fill="#d72ac8" d="M 168.5,11.5 C 230.71,21.8854 271.877,56.8854 292,116.5C 294.47,125.013 295.97,133.679 296.5,142.5C 295.698,141.048 295.198,139.382 295,137.5C 293.908,143.817 292.908,143.483 292,136.5C 291.51,137.793 291.343,139.127 291.5,140.5C 279.463,73.499 240.13,32.499 173.5,17.5C 170.861,16.5406 168.194,15.374 165.5,14C 166.942,13.6232 167.942,12.7899 168.5,11.5 Z"/></g>
<g><path style="opacity:1" fill="#f41984" d="M 111.5,21.5 C 102.824,24.0056 94.4908,27.3389 86.5,31.5C 86.4456,29.368 85.4456,28.0347 83.5,27.5C 88.0387,24.4 93.0387,22.0667 98.5,20.5C 102.319,20.1167 105.986,19.1167 109.5,17.5C 111.111,18.3202 111.778,19.6536 111.5,21.5 Z"/></g>
<g><path style="opacity:1" fill="#ff2665" d="M 83.5,27.5 C 85.4456,28.0347 86.4456,29.368 86.5,31.5C 76.956,36.7155 67.956,42.7155 59.5,49.5C 59.33,48.1779 59.6634,47.0113 60.5,46C 59.0406,46.3554 57.7072,46.1888 56.5,45.5C 64.4067,37.9386 73.4067,31.9386 83.5,27.5 Z"/></g>
<g><path style="opacity:1" fill="#ff3d4f" d="M 56.5,45.5 C 57.7072,46.1888 59.0406,46.3554 60.5,46C 59.6634,47.0113 59.33,48.1779 59.5,49.5C 55.8333,52.8333 52.1667,56.1667 48.5,59.5C 47.0736,58.6588 45.7403,57.6588 44.5,56.5C 47.8744,52.1245 51.8744,48.4578 56.5,45.5 Z"/></g>
<g><path style="opacity:1" fill="#ff5130" d="M 44.5,56.5 C 45.7403,57.6588 47.0736,58.6588 48.5,59.5C 41.3746,66.949 35.0413,74.949 29.5,83.5C 27.9504,82.2801 26.2837,82.2801 24.5,83.5C 29.5997,73.3917 36.2663,64.3917 44.5,56.5 Z"/></g>
<g><path style="opacity:1" fill="#ff6c1d" d="M 29.5,83.5 C 26.2294,89.7077 23.2294,96.0411 20.5,102.5C 19.6851,101.571 18.8518,100.571 18,99.5C 17.3333,100.833 16.6667,102.167 16,103.5C 15.5357,102.906 15.369,102.239 15.5,101.5C 17.4651,94.9031 20.4651,88.9031 24.5,83.5C 26.2837,82.2801 27.9504,82.2801 29.5,83.5 Z"/></g>
<g><path style="opacity:1" fill="#ff831a" d="M 20.5,102.5 C 17.7777,108.999 15.4444,115.665 13.5,122.5C 12.6981,121.048 12.1981,119.382 12,117.5C 11.5291,119.246 10.8624,120.913 10,122.5C 9.98221,120.203 10.1489,117.869 10.5,115.5C 11.3982,110.466 13.0649,105.799 15.5,101.5C 15.369,102.239 15.5357,102.906 16,103.5C 16.6667,102.167 17.3333,100.833 18,99.5C 18.8518,100.571 19.6851,101.571 20.5,102.5 Z"/></g>
<g><path style="opacity:1" fill="#ff9b17" d="M 10.5,115.5 C 10.1489,117.869 9.98221,120.203 10,122.5C 10.8624,120.913 11.5291,119.246 12,117.5C 12.1981,119.382 12.6981,121.048 13.5,122.5C 9.93481,137.592 8.60148,152.925 9.5,168.5C 9.44268,173.682 8.77601,173.682 7.5,168.5C 6.71893,169.729 6.21893,171.062 6,172.5C 5.50015,161.505 5.33349,150.505 5.5,139.5C 5.90821,131.121 7.57488,123.121 10.5,115.5 Z"/></g>
<g><path style="opacity:1" fill="#e331b1" d="M 296.5,142.5 C 297.883,154.869 297.55,167.202 295.5,179.5C 293.014,176.389 291.681,172.722 291.5,168.5C 291.5,159.167 291.5,149.833 291.5,140.5C 291.343,139.127 291.51,137.793 292,136.5C 292.908,143.483 293.908,143.817 295,137.5C 295.198,139.382 295.698,141.048 296.5,142.5 Z"/></g>
<g><path style="opacity:1" fill="#ec349f" d="M 291.5,168.5 C 291.681,172.722 293.014,176.389 295.5,179.5C 294.907,186.867 293.24,193.867 290.5,200.5C 291.204,196.529 289.871,195.195 286.5,196.5C 288.205,187.049 289.871,177.716 291.5,168.5 Z"/></g>
<g><path style="opacity:1" fill="#ffbf2b" d="M 5.5,139.5 C 5.33349,150.505 5.50015,161.505 6,172.5C 6.21893,171.062 6.71893,169.729 7.5,168.5C 8.77601,173.682 9.44268,173.682 9.5,168.5C 11.3239,177.663 13.1572,186.996 15,196.5C 18.218,205.271 21.718,213.938 25.5,222.5C 23.2843,221.797 21.451,220.464 20,218.5C 19.5172,219.448 19.3505,220.448 19.5,221.5C 6.19283,195.632 1.52616,168.299 5.5,139.5 Z"/></g>
<g><path style="opacity:1" fill="#f73086" d="M 290.5,200.5 C 287.987,209.722 284.32,218.388 279.5,226.5C 278.918,225.069 278.085,223.736 277,222.5C 276.617,223.056 276.117,223.389 275.5,223.5C 279.372,214.541 283.039,205.541 286.5,196.5C 289.871,195.195 291.204,196.529 290.5,200.5 Z"/></g>
<g><path style="opacity:1" fill="#ff2864" d="M 279.5,226.5 C 274.211,237.413 267.211,247.08 258.5,255.5C 258.047,254.542 257.381,253.708 256.5,253C 257.712,251.893 257.379,251.393 255.5,251.5C 263.161,242.833 269.827,233.5 275.5,223.5C 276.117,223.389 276.617,223.056 277,222.5C 278.085,223.736 278.918,225.069 279.5,226.5 Z"/></g>
<g><path style="opacity:1" fill="#ff3b40" d="M 255.5,251.5 C 257.379,251.393 257.712,251.893 256.5,253C 257.381,253.708 258.047,254.542 258.5,255.5C 254.167,260.5 249.5,265.167 244.5,269.5C 243.455,268.122 242.122,267.122 240.5,266.5C 245.806,261.86 250.806,256.86 255.5,251.5 Z"/></g>
<g><path style="opacity:1" fill="#ebebeb" d="M 136.5,24.5 C 193.696,21.5097 237.196,44.1764 267,92.5C 292.719,144.569 288.386,193.902 254,240.5C 216.303,282.394 169.803,296.894 114.5,284C 71.8858,271.052 42.3858,243.885 26,202.5C 10.8175,157.103 17.1508,115.103 45,76.5C 68.6426,47.0955 99.1426,29.7622 136.5,24.5 Z"/></g>
<g><path style="opacity:1" fill="#fefdfd" d="M 136.5,26.5 C 192.557,23.2757 235.39,45.2757 265,92.5C 284.952,131.325 286.619,170.992 270,211.5C 244.595,260.89 203.928,286.223 148,287.5C 90.5003,283.64 50.5003,255.307 28,202.5C 10.9594,147.848 22.4594,100.348 62.5,60C 83.8899,41.4696 108.557,30.3029 136.5,26.5 Z"/></g>
<g><path style="opacity:1" fill="#c5c4c3" d="M 75.5,203.5 C 77.1667,203.5 78.8333,203.5 80.5,203.5C 80.5,208.833 80.5,214.167 80.5,219.5C 88.5,219.5 96.5,219.5 104.5,219.5C 104.5,221.167 104.5,222.833 104.5,224.5C 87.1667,224.5 69.8333,224.5 52.5,224.5C 52.5,222.833 52.5,221.167 52.5,219.5C 60.1667,219.5 67.8333,219.5 75.5,219.5C 75.5,214.167 75.5,208.833 75.5,203.5 Z"/></g>
<g><path style="opacity:1" fill="#81797a" d="M 247.5,183.5 C 250.5,183.167 251.833,184.5 251.5,187.5C 250.022,187.238 248.689,187.571 247.5,188.5C 248.833,188.833 250.167,189.167 251.5,189.5C 249.926,190.631 248.259,190.798 246.5,190C 245.091,187.536 245.424,185.369 247.5,183.5 Z"/></g>
<g><path style="opacity:1" fill="#857b7c" d="M 186.5,183.5 C 187.978,183.238 189.311,183.571 190.5,184.5C 189.975,185.192 189.308,185.692 188.5,186C 190.863,186.589 191.863,188.089 191.5,190.5C 189.801,190.66 188.134,190.494 186.5,190C 189.742,189.717 190.076,188.883 187.5,187.5C 186.571,186.311 186.238,184.978 186.5,183.5 Z"/></g>
<g><path style="opacity:1" fill="#878282" d="M 224.5,183.5 C 226.288,183.215 227.955,183.548 229.5,184.5C 227.309,185.881 225.976,187.881 225.5,190.5C 224.526,188.257 224.192,185.924 224.5,183.5 Z"/></g>
<g><path style="opacity:1" fill="#938a8a" d="M 212.5,183.5 C 216.648,183.834 218.315,186.167 217.5,190.5C 210.552,191.574 208.885,189.241 212.5,183.5 Z"/></g>
<g><path style="opacity:1" fill="#8f8988" d="M 152.5,181.5 C 153.833,181.5 155.167,181.5 156.5,181.5C 157.159,184.455 157.492,187.455 157.5,190.5C 155.5,190.5 153.5,190.5 151.5,190.5C 151.137,188.089 152.137,186.589 154.5,186C 153.5,185.667 152.5,185.333 151.5,185C 152.337,183.989 152.67,182.822 152.5,181.5 Z"/></g>
<g><path style="opacity:1" fill="#9f9799" d="M 235.5,181.5 C 236.5,181.5 237.5,181.5 238.5,181.5C 238.5,184.5 238.5,187.5 238.5,190.5C 237.5,190.5 236.5,190.5 235.5,190.5C 235.5,187.5 235.5,184.5 235.5,181.5 Z"/></g>
<g><path style="opacity:1" fill="#7c7171" d="M 165.5,182.5 C 166.995,182.415 167.995,183.081 168.5,184.5C 167.233,186.371 167.233,188.204 168.5,190C 167.552,190.483 166.552,190.649 165.5,190.5C 165.043,187.691 165.043,185.024 165.5,182.5 Z"/></g>
<g><path style="opacity:1" fill="#888081" d="M 199.5,183.5 C 203.971,183.672 204.304,184.506 200.5,186C 202.863,186.589 203.863,188.089 203.5,190.5C 201.712,190.785 200.045,190.452 198.5,189.5C 198.465,187.557 198.798,185.557 199.5,183.5 Z"/></g>
<g><path style="opacity:1" fill="#8d8787" d="M 176.5,181.5 C 177.765,182.514 178.431,184.014 178.5,186C 178.167,187.5 177.833,189 177.5,190.5C 176.516,187.572 176.183,184.572 176.5,181.5 Z"/></g>
<g><path style="opacity:1" fill="#897a79" d="M 137.5,181.5 C 142.5,180.5 144.5,182.5 143.5,187.5C 142.167,187.5 140.833,187.5 139.5,187.5C 139.719,188.675 139.386,189.675 138.5,190.5C 137.516,187.572 137.183,184.572 137.5,181.5 Z"/></g>
<g><path style="opacity:1" fill="#8a7e7d" d="M 138.5,142.5 C 137.167,142.5 135.833,142.5 134.5,142.5C 134.5,152.5 134.5,162.5 134.5,172.5C 136.735,172.795 138.735,172.461 140.5,171.5C 144.135,170.886 147.802,170.552 151.5,170.5C 151.5,171.5 151.5,172.5 151.5,173.5C 145.5,173.5 139.5,173.5 133.5,173.5C 133.5,162.833 133.5,152.167 133.5,141.5C 135.415,141.216 137.081,141.549 138.5,142.5 Z"/></g>
<g><path style="opacity:1" fill="#6b5454" d="M 171.5,142.5 C 171.5,152.833 171.5,163.167 171.5,173.5C 170.167,173.5 168.833,173.5 167.5,173.5C 167.5,163.167 167.5,152.833 167.5,142.5C 168.833,142.5 170.167,142.5 171.5,142.5 Z"/></g>
<g><path style="opacity:1" fill="#725d5d" d="M 252.5,141.5 C 253.75,141.577 254.583,142.244 255,143.5C 259.19,153.207 263.356,162.874 267.5,172.5C 265.833,173.833 264.167,173.833 262.5,172.5C 261.695,170.085 260.695,167.751 259.5,165.5C 254.5,164.167 249.5,164.167 244.5,165.5C 244.054,168.64 242.721,171.307 240.5,173.5C 240.167,172.833 239.833,172.167 239.5,171.5C 243.842,161.465 248.175,151.465 252.5,141.5 Z"/></g>
<g><path style="opacity:1" fill="#745f5e" d="M 216.5,144.5 C 218.042,143.699 219.708,143.366 221.5,143.5C 222.037,149.65 222.704,155.65 223.5,161.5C 223.5,165.5 223.5,169.5 223.5,173.5C 221.833,173.5 220.167,173.5 218.5,173.5C 218.831,164.808 218.498,156.141 217.5,147.5C 214.503,153.333 212.003,159.333 210,165.5C 208.5,167.833 207,170.167 205.5,172.5C 201.489,164.478 197.489,156.478 193.5,148.5C 192.833,156.833 192.167,165.167 191.5,173.5C 190.469,162.84 190.469,152.173 191.5,141.5C 193.288,141.215 194.955,141.548 196.5,142.5C 199.904,149.876 203.404,157.21 207,164.5C 210.101,157.641 213.268,150.975 216.5,144.5 Z"/></g>
<g><path style="opacity:1" fill="#978484" d="M 223.5,161.5 C 222.704,155.65 222.037,149.65 221.5,143.5C 219.708,143.366 218.042,143.699 216.5,144.5C 216.414,143.504 216.748,142.671 217.5,142C 219.441,141.257 221.274,141.424 223,142.5C 223.5,148.825 223.666,155.158 223.5,161.5 Z"/></g>
<g><path style="opacity:1" fill="#f0ebea" d="M 251.5,148.5 C 252.79,149.058 253.623,150.058 254,151.5C 255.173,155.531 256.34,159.531 257.5,163.5C 253.445,163.824 249.445,163.491 245.5,162.5C 247.8,157.976 249.8,153.31 251.5,148.5 Z"/></g>
<g><path style="opacity:1" fill="#6a504f" d="M 138.5,142.5 C 137.86,152.558 138.527,162.225 140.5,171.5C 138.735,172.461 136.735,172.795 134.5,172.5C 134.5,162.5 134.5,152.5 134.5,142.5C 135.833,142.5 137.167,142.5 138.5,142.5 Z"/></g>
<g><path style="opacity:1" fill="#c1b6b4" d="M 171.5,142.5 C 170.167,142.5 168.833,142.5 167.5,142.5C 167.5,152.833 167.5,163.167 167.5,173.5C 166.506,163.013 166.172,152.346 166.5,141.5C 168.415,141.216 170.081,141.549 171.5,142.5 Z"/></g>
<g><path style="opacity:1" fill="#cdc2be" d="M 138.5,142.5 C 139.19,152.068 139.857,161.735 140.5,171.5C 138.527,162.225 137.86,152.558 138.5,142.5 Z"/></g>
<g><path style="opacity:1" fill="#6f6363" d="M 255.5,135.5 C 257.665,135.116 259.332,135.783 260.5,137.5C 259.332,139.217 257.665,139.884 255.5,139.5C 255.5,138.167 255.5,136.833 255.5,135.5 Z"/></g>
<g><path style="opacity:1" fill="#695b5d" d="M 246.5,135.5 C 247.833,135.5 249.167,135.5 250.5,135.5C 250.5,136.833 250.5,138.167 250.5,139.5C 249.167,139.5 247.833,139.5 246.5,139.5C 246.5,138.167 246.5,136.833 246.5,135.5 Z"/></g>
<g><path style="opacity:1" fill="#a49e9d" d="M 80.5,203.5 C 78.8333,203.5 77.1667,203.5 75.5,203.5C 64.1667,203.5 52.8333,203.5 41.5,203.5C 41.3334,182.831 41.5,162.164 42,141.5C 46.8791,124.626 58.0458,114.792 75.5,112C 72.3006,107.493 73.3006,104.326 78.5,102.5C 83.7065,104.376 84.7065,107.543 81.5,112C 99.1908,115.694 110.357,126.194 115,143.5C 115.5,163.497 115.667,183.497 115.5,203.5C 103.833,203.5 92.1667,203.5 80.5,203.5 Z"/></g>
<g><path style="opacity:1" fill="#e8e4e2" d="M 112.5,142.5 C 113.497,161.993 113.83,181.66 113.5,201.5C 89.994,201.831 66.6607,201.498 43.5,200.5C 66.5,200.5 89.5,200.5 112.5,200.5C 112.5,181.167 112.5,161.833 112.5,142.5 Z"/></g>
<g><path style="opacity:1" fill="#fcfcfc" d="M 112.5,142.5 C 112.5,161.833 112.5,181.167 112.5,200.5C 89.5,200.5 66.5,200.5 43.5,200.5C 43.3334,181.164 43.5,161.83 44,142.5C 51.6662,118.915 67.4996,110.415 91.5,117C 103.093,121.756 110.093,130.256 112.5,142.5 Z"/></g>
<g><path style="opacity:1" fill="#d1d0cf" d="M 59.5,169.5 C 61.9115,169.137 63.4115,170.137 64,172.5C 64.3879,171.572 65.0546,170.905 66,170.5C 70.7252,171.716 72.8918,174.716 72.5,179.5C 76.7444,178.807 80.9111,177.807 85,176.5C 89.8234,178.169 94.6567,179.669 99.5,181C 100.804,181.804 101.471,182.971 101.5,184.5C 101.346,187.856 100.013,190.523 97.5,192.5C 95.1065,190.278 92.2732,189.278 89,189.5C 84.394,190.651 79.7274,191.651 75,192.5C 71.1721,191.669 67.3388,190.836 63.5,190C 59.314,186.648 55.6474,182.814 52.5,178.5C 54.1353,177.319 55.802,177.319 57.5,178.5C 58.9322,175.673 59.5988,172.673 59.5,169.5 Z"/></g>
<g><path style="opacity:1" fill="#f9f8f7" d="M 81.5,178.5 C 86.3768,177.812 90.7101,178.979 94.5,182C 96.1341,182.494 97.8008,182.66 99.5,182.5C 99.4613,185.321 98.7946,187.988 97.5,190.5C 94.5369,188.999 91.3702,188.333 88,188.5C 79.7636,191.135 71.5969,190.969 63.5,188C 61.1752,185.709 58.8419,183.376 56.5,181C 57.1667,180.333 57.8333,180.333 58.5,181C 60.208,183.043 62.208,184.71 64.5,186C 69.039,186.253 73.539,186.753 78,187.5C 79.8114,186.576 79.6447,185.743 77.5,185C 72.9351,184.255 68.6018,182.922 64.5,181C 69.8333,180.667 75.1667,180.333 80.5,180C 81.056,179.617 81.3893,179.117 81.5,178.5 Z"/></g>
<g><path style="opacity:1" fill="#7a7a7a" d="M 69.5,163.5 C 71.5922,163.561 73.0922,164.561 74,166.5C 74.3333,165.833 74.6667,165.167 75,164.5C 75.4186,165.672 76.0853,166.672 77,167.5C 77.6667,166.167 78.3333,166.167 79,167.5C 79.9234,166.241 80.7568,164.908 81.5,163.5C 81.2192,168.76 82.2192,168.76 84.5,163.5C 84.8333,163.5 85.1667,163.5 85.5,163.5C 85.8333,163.5 86.1667,163.5 86.5,163.5C 85.0582,164.82 84.3915,166.486 84.5,168.5C 80.4862,168.666 76.4862,168.499 72.5,168C 71.6138,166.385 70.6138,164.885 69.5,163.5 Z"/></g>
<g><path style="opacity:1" fill="#acacac" d="M 86.5,163.5 C 86.1667,163.5 85.8333,163.5 85.5,163.5C 86.171,160.881 85.3377,158.547 83,156.5C 82.2904,157.973 81.1238,158.64 79.5,158.5C 79.5,157.5 79.5,156.5 79.5,155.5C 78.5,155.5 77.5,155.5 76.5,155.5C 76.5,156.5 76.5,157.5 76.5,158.5C 74.8762,158.64 73.7096,157.973 73,156.5C 70.9524,158.506 71.4524,159.506 74.5,159.5C 74.6492,163.123 75.8158,163.457 78,160.5C 79.9112,163.023 81.7445,163.023 83.5,160.5C 84.3857,161.325 84.719,162.325 84.5,163.5C 82.2192,168.76 81.2192,168.76 81.5,163.5C 80.7568,164.908 79.9234,166.241 79,167.5C 78.3333,166.167 77.6667,166.167 77,167.5C 76.0853,166.672 75.4186,165.672 75,164.5C 74.6667,165.167 74.3333,165.833 74,166.5C 73.0922,164.561 71.5922,163.561 69.5,163.5C 68.5028,163.53 67.8361,163.03 67.5,162C 68.9247,156.741 72.258,153.241 77.5,151.5C 80.4919,152.887 83.3252,154.554 86,156.5C 86.4536,158.536 87.2869,160.37 88.5,162C 88.1639,163.03 87.4972,163.53 86.5,163.5 Z"/></g>
<g><path style="opacity:1" fill="#eeeeee" d="M 85.5,163.5 C 85.1667,163.5 84.8333,163.5 84.5,163.5C 84.719,162.325 84.3857,161.325 83.5,160.5C 81.7445,163.023 79.9112,163.023 78,160.5C 75.8158,163.457 74.6492,163.123 74.5,159.5C 71.4524,159.506 70.9524,158.506 73,156.5C 73.7096,157.973 74.8762,158.64 76.5,158.5C 76.5,157.5 76.5,156.5 76.5,155.5C 77.5,155.5 78.5,155.5 79.5,155.5C 79.5,156.5 79.5,157.5 79.5,158.5C 81.1238,158.64 82.2904,157.973 83,156.5C 85.3377,158.547 86.171,160.881 85.5,163.5 Z"/></g>
<g><path style="opacity:1" fill="#d1d0ce" d="M 78.5,124.5 C 87.6067,125.221 95.2733,128.887 101.5,135.5C 97.876,137.035 94.7094,136.368 92,133.5C 91.5007,138.489 91.3341,143.489 91.5,148.5C 90.1779,148.67 89.0113,148.337 88,147.5C 87.6667,145.5 87.3333,143.5 87,141.5C 85.9274,143.547 84.7607,145.547 83.5,147.5C 82.0295,146.619 81.1962,145.286 81,143.5C 80.3109,144.357 79.4776,145.023 78.5,145.5C 77.5508,142.874 77.5508,140.208 78.5,137.5C 73.2,138.549 67.8666,139.049 62.5,139C 60.1918,137.133 57.5251,136.133 54.5,136C 51.9659,133.413 51.9659,130.747 54.5,128C 59.8241,128.146 65.1574,128.146 70.5,128C 73.1218,126.525 75.7884,125.359 78.5,124.5 Z"/></g>
<g><path style="opacity:1" fill="#f9f9f8" d="M 77.5,126.5 C 85.9573,126.485 93.2907,129.318 99.5,135C 95.7394,133.304 91.7394,131.804 87.5,130.5C 86.9202,131.574 87.4202,132.574 89,133.5C 89.6667,135.5 89.6667,137.5 89,139.5C 88.5911,135.014 86.4244,131.68 82.5,129.5C 81.479,130.002 81.3123,130.668 82,131.5C 85.2331,133.355 86.5664,136.021 86,139.5C 84.7401,136.426 82.5735,134.093 79.5,132.5C 78.9202,133.574 79.4202,134.574 81,135.5C 81.6667,136.5 81.6667,137.5 81,138.5C 79.745,136.406 77.9116,135.406 75.5,135.5C 72.3024,136.346 69.1357,137.346 66,138.5C 62.3851,136.438 58.5517,135.105 54.5,134.5C 54.2865,132.856 54.6198,131.356 55.5,130C 63.3548,131.524 70.6881,130.357 77.5,126.5 Z"/></g>
<g><path style="opacity:1" fill="#f6f5f5" d="M 76.5,104.5 C 81.3276,104.385 82.6609,106.552 80.5,111C 75.5705,111.427 74.2372,109.26 76.5,104.5 Z"/></g>
<g><path style="opacity:1" fill="#ffc620" d="M 25.5,222.5 C 45.8018,259.131 76.1351,283.131 116.5,294.5C 115.448,294.351 114.448,294.517 113.5,295C 116.706,295.927 117.039,297.093 114.5,298.5C 71.1613,287.155 39.4946,261.488 19.5,221.5C 19.3505,220.448 19.5172,219.448 20,218.5C 21.451,220.464 23.2843,221.797 25.5,222.5 Z"/></g>
<g><path style="opacity:1" fill="#ff5b26" d="M 240.5,266.5 C 242.122,267.122 243.455,268.122 244.5,269.5C 236.315,276.428 227.315,282.094 217.5,286.5C 217.567,285.041 217.234,283.708 216.5,282.5C 224.749,277.592 232.749,272.259 240.5,266.5 Z"/></g>
<g><path style="opacity:1" fill="#ff730d" d="M 216.5,282.5 C 217.234,283.708 217.567,285.041 217.5,286.5C 211.022,290.447 204.022,293.447 196.5,295.5C 195.668,294.671 196.001,293.838 197.5,293C 196.5,292.667 195.5,292.333 194.5,292C 198.264,291.148 201.597,289.648 204.5,287.5C 208.333,285.444 212.333,283.778 216.5,282.5 Z"/></g>
<g><path style="opacity:1" fill="#ff8d17" d="M 204.5,287.5 C 201.597,289.648 198.264,291.148 194.5,292C 195.5,292.333 196.5,292.667 197.5,293C 196.001,293.838 195.668,294.671 196.5,295.5C 189.415,298.106 182.082,300.106 174.5,301.5C 167.852,302.139 161.186,302.473 154.5,302.5C 155.398,301.842 156.398,301.176 157.5,300.5C 156.833,300.167 156.167,299.833 155.5,299.5C 162.002,298.676 168.336,297.676 174.5,296.5C 184.487,293.831 194.487,290.831 204.5,287.5 Z"/></g>
<g><path style="opacity:1" fill="#ffaf1d" d="M 116.5,294.5 C 135.729,297.663 155.062,298.33 174.5,296.5C 168.336,297.676 162.002,298.676 155.5,299.5C 156.167,299.833 156.833,300.167 157.5,300.5C 156.398,301.176 155.398,301.842 154.5,302.5C 154.5,302.833 154.5,303.167 154.5,303.5C 140.896,303.762 127.563,302.095 114.5,298.5C 117.039,297.093 116.706,295.927 113.5,295C 114.448,294.517 115.448,294.351 116.5,294.5 Z"/></g>
<g><path style="opacity:1" fill="#ffdfb1" d="M 174.5,301.5 C 173.391,302.29 172.058,302.79 170.5,303C 165.177,303.499 159.844,303.666 154.5,303.5C 154.5,303.167 154.5,302.833 154.5,302.5C 161.186,302.473 167.852,302.139 174.5,301.5 Z"/></g>
</svg>
